# xmcd CD database file
#
# Track frame offsets:
#	182
#	14502
#	29977
#	45640
#	54202
#	68100
#	85222
#	100450
#	133460
#	148720
#	162900
#	184252
#	194495
#	205267
#	223715
#	238487
#	250837
#	261560
#	277200
#	287535
#
# Disc length: 3975 seconds
#
# Revision: 2
# Processed by: cddbd v1.4PL0 Copyright (c) Steve Scherf et al.
# Submitted via: CDex 1.51
#
DISCID=4e0f8514
DTITLE=Willie Nelson - Willie Nelson_Classic and Unreleased Vol. 2
DYEAR=1900
DGENRE=Country
TTITLE0=So Much To Do
TTITLE1=(How Will I Know) I'm Falling In Love Again
TTITLE2=Bloody Mary Morning
TTITLE3=No Love Around
TTITLE4=After The Fire Is Gone
TTITLE5=Whiskey River
TTITLE6=Me And Paul
TTITLE7=Medley: Funny How Time Slips Away - Crazy - Night Life
TTITLE8=Stay All Night (Stay A Little Longer)
TTITLE9=Walkin'
TTITLE10=Bloody Mary Morning - Take Me Back To Tulsa
TTITLE11=The Party's Over
TTITLE12=Truck Drivin' Man
TTITLE13=She Thinks I Still Care
TTITLE14=Good Hearted Woman
TTITLE15=Sister's Coming Home
TTITLE16=Sugar Moon
TTITLE17=I'm A Fool To Care
TTITLE18=Rosetta
TTITLE19=I'll Sail My Ship Alone
EXTD=
EXTT0=
EXTT1=
EXTT2=
EXTT3=
EXTT4=
EXTT5=
EXTT6=
EXTT7=
EXTT8=
EXTT9=
EXTT10=
EXTT11=
EXTT12=
EXTT13=
EXTT14=
EXTT15=
EXTT16=
EXTT17=
EXTT18=
EXTT19=
PLAYORDER=
